<mxfile host="app.diagrams.net" modified="2024-03-26T14:15:50.262Z" agent="Mozilla/5.0 (Windows NT 10.0; Win64; x64) AppleWebKit/537.36 (KHTML, like Gecko) Chrome/122.0.0.0 Safari/537.36 Edg/122.0.0.0" version="24.1.0" etag="3vP3R8reLaV6R3XZpKJr" type="github">
  <diagram name="Страница — 1" id="qBUOuAONqq4gAu2929qw">
    <mxGraphModel>
      <root>
        <mxCell id="0" />
        <mxCell id="1" parent="0" />
      </root>
    </mxGraphModel>
  </diagram>
</mxfile>
